<svg width="220" height="220" viewBox="0 0 220 220" fill="none" xmlns="http://www.w3.org/2000/svg" role="img" aria-label="Email">
  <defs>
    <linearGradient id="email-circle-gradient" x1="52" y1="36" x2="176" y2="190" gradientUnits="userSpaceOnUse">
      <stop stop-color="#2F8DDE"/>
      <stop offset="1" stop-color="#1E75B8"/>
    </linearGradient>
    <filter id="email-soft-shadow" x="10" y="12" width="200" height="200" filterUnits="userSpaceOnUse" color-interpolation-filters="sRGB">
      <feFlood flood-opacity="0" result="BackgroundImageFix"/>
      <feColorMatrix in="SourceAlpha" type="matrix" values="0 0 0 0 0 0 0 0 0 0 0 0 0 0 0 0 0 0 127 0" result="hardAlpha"/>
      <feOffset dy="8"/>
      <feGaussianBlur stdDeviation="10"/>
      <feColorMatrix type="matrix" values="0 0 0 0 0.0705882 0 0 0 0 0.258824 0 0 0 0 0.52549 0 0 0 0.18 0"/>
      <feBlend mode="normal" in2="BackgroundImageFix" result="effect1_dropShadow"/>
      <feBlend mode="normal" in="SourceGraphic" in2="effect1_dropShadow" result="shape"/>
    </filter>
  </defs>
  <g filter="url(#email-soft-shadow)">
    <circle cx="110" cy="104" r="90" fill="url(#email-circle-gradient)"/>
    <path d="M58 75.5C58 72.46 60.46 70 63.5 70H156.5C159.54 70 162 72.46 162 75.5V81.5L112.92 121.3C111.22 122.68 108.78 122.68 107.08 121.3L58 81.5V75.5Z" fill="white"/>
    <path d="M58 93.3V136.5C58 139.54 60.46 142 63.5 142H156.5C159.54 142 162 139.54 162 136.5V93.3L123.44 124.57L157.88 137.8H62.12L96.56 124.57L58 93.3Z" fill="white"/>
    <path d="M58 91.2L91.86 118.66L58 132.12V91.2Z" fill="white"/>
    <path d="M162 91.2L128.14 118.66L162 132.12V91.2Z" fill="white"/>
  </g>
</svg>
